<svg width="76" height="34" viewBox="0 0 76 34" fill="none" xmlns="http://www.w3.org/2000/svg">
<path d="M3.6859 27.3333V10.6693H0.321913V6.70833H12.7155V10.6693H9.35156V27.3333H3.6859Z" fill="url(#paint0_linear_67_78)"/>
<path d="M16.1242 27.3333V6.70833H24.7515L27.1337 19.2826L29.4997 6.70833H38.2075V27.3333H33.0247V12.474L29.7733 27.3333H24.6871L21.2427 12.474V27.3333H16.1242Z" fill="url(#paint1_linear_67_78)"/>
<path d="M42.5497 27.3333V6.70833H50.34C52.3788 6.70833 53.9132 7.1224 54.9433 7.95052C55.9735 8.77083 56.4885 9.97396 56.4885 11.5599V21.2161C56.4885 23.1693 56.0164 24.6771 55.0721 25.7396C54.1386 26.8021 52.4968 27.3333 50.1468 27.3333H42.5497ZM48.2476 23.6888H49.2294C50.2702 23.6888 50.7907 23.3216 50.7907 22.5872V11.9466C50.7907 11.2591 50.6619 10.8177 50.4044 10.6224C50.1576 10.4193 49.6479 10.3177 48.8753 10.3177H48.2476V23.6888Z" fill="url(#paint2_linear_67_78)"/>
<path d="M70.1823 27.5208C69.238 27.5208 68.4708 27.3529 67.8806 27.0169C67.2905 26.6732 66.8183 26.1536 66.4642 25.4583V27.3333H60.6054V6.70833H66.4642V11.6302C66.8183 10.9818 67.3066 10.4779 67.9289 10.1185C68.562 9.7513 69.4634 9.56771 70.633 9.56771C72.2104 9.56771 73.321 9.98568 73.9648 10.8216C74.6194 11.6576 74.9466 12.7513 74.9466 14.1029V22.7513C74.9466 23.6497 74.7749 24.4622 74.4316 25.1888C74.0989 25.9076 73.5785 26.4779 72.8703 26.8997C72.1728 27.3138 71.2768 27.5208 70.1823 27.5208ZM67.8002 24.2513C68.4118 24.2513 68.782 24.0326 68.9108 23.5951C69.0395 23.1576 69.1039 22.6185 69.1039 21.9779V15.1107C69.1039 14.4622 69.0395 13.9232 68.9108 13.4935C68.782 13.056 68.4172 12.8372 67.8163 12.8372C67.1939 12.8372 66.813 13.0599 66.6735 13.5052C66.534 13.9427 66.4642 14.4779 66.4642 15.1107V21.9779C66.4642 22.6107 66.534 23.1497 66.6735 23.5951C66.813 24.0326 67.1885 24.2513 67.8002 24.2513Z" fill="url(#paint3_linear_67_78)"/>
<path d="M0 0H76V4H0V0Z" fill="url(#paint4_linear_67_78)"/>
<path d="M0 30H76V34H0V30Z" fill="url(#paint5_linear_67_78)"/>
<defs>
<linearGradient id="paint0_linear_67_78" x1="38" y1="0" x2="38" y2="34" gradientUnits="userSpaceOnUse">
<stop stop-color="#E0B440"/>
<stop offset="1" stop-color="#8E4C0F"/>
</linearGradient>
<linearGradient id="paint1_linear_67_78" x1="38" y1="0" x2="38" y2="34" gradientUnits="userSpaceOnUse">
<stop stop-color="#E0B440"/>
<stop offset="1" stop-color="#8E4C0F"/>
</linearGradient>
<linearGradient id="paint2_linear_67_78" x1="38" y1="0" x2="38" y2="34" gradientUnits="userSpaceOnUse">
<stop stop-color="#E0B440"/>
<stop offset="1" stop-color="#8E4C0F"/>
</linearGradient>
<linearGradient id="paint3_linear_67_78" x1="38" y1="0" x2="38" y2="34" gradientUnits="userSpaceOnUse">
<stop stop-color="#E0B440"/>
<stop offset="1" stop-color="#8E4C0F"/>
</linearGradient>
<linearGradient id="paint4_linear_67_78" x1="38" y1="0" x2="38" y2="34" gradientUnits="userSpaceOnUse">
<stop stop-color="#E0B440"/>
<stop offset="1" stop-color="#8E4C0F"/>
</linearGradient>
<linearGradient id="paint5_linear_67_78" x1="38" y1="0" x2="38" y2="34" gradientUnits="userSpaceOnUse">
<stop stop-color="#E0B440"/>
<stop offset="1" stop-color="#8E4C0F"/>
</linearGradient>
</defs>
</svg>
